<mxfile host="app.diagrams.net" modified="2022-04-20T02:45:04.538Z" agent="5.0 (Macintosh; Intel Mac OS X 10_15_7) AppleWebKit/537.36 (KHTML, like Gecko) Chrome/100.0.4896.88 Safari/537.36" etag="pEzhUeFr1AJoGYoXVDWn" version="17.4.5" type="github">
  <diagram id="R2lEEEUBdFMjLlhIrx00" name="Page-1">
    <mxGraphModel dx="2427" dy="1963" grid="1" gridSize="10" guides="1" tooltips="1" connect="1" arrows="1" fold="1" page="1" pageScale="1" pageWidth="850" pageHeight="1100" math="0" shadow="0" extFonts="Permanent Marker^https://fonts.googleapis.com/css?family=Permanent+Marker">
      <root>
        <mxCell id="0" />
        <mxCell id="1" parent="0" />
        <mxCell id="DIDQX_OVSp32dabbZ__B-63" style="edgeStyle=orthogonalEdgeStyle;rounded=0;orthogonalLoop=1;jettySize=auto;html=1;exitX=0.5;exitY=1;exitDx=0;exitDy=0;entryX=0.5;entryY=0;entryDx=0;entryDy=0;startArrow=ERone;startFill=0;endArrow=ERzeroToMany;endFill=0;startSize=18;endSize=14;" edge="1" parent="1" source="DIDQX_OVSp32dabbZ__B-9" target="DIDQX_OVSp32dabbZ__B-27">
          <mxGeometry relative="1" as="geometry" />
        </mxCell>
        <mxCell id="DIDQX_OVSp32dabbZ__B-64" style="edgeStyle=orthogonalEdgeStyle;rounded=0;orthogonalLoop=1;jettySize=auto;html=1;exitX=0.5;exitY=1;exitDx=0;exitDy=0;startArrow=ERone;startFill=0;endArrow=ERzeroToMany;endFill=0;startSize=18;endSize=14;" edge="1" parent="1" source="DIDQX_OVSp32dabbZ__B-9" target="DIDQX_OVSp32dabbZ__B-25">
          <mxGeometry relative="1" as="geometry">
            <mxPoint x="230" y="480" as="sourcePoint" />
            <mxPoint x="530" y="580" as="targetPoint" />
          </mxGeometry>
        </mxCell>
        <mxCell id="DIDQX_OVSp32dabbZ__B-65" style="edgeStyle=orthogonalEdgeStyle;rounded=0;orthogonalLoop=1;jettySize=auto;html=1;exitX=0.5;exitY=1;exitDx=0;exitDy=0;startArrow=ERone;startFill=0;endArrow=ERzeroToMany;endFill=0;startSize=18;endSize=14;entryX=0.5;entryY=0;entryDx=0;entryDy=0;" edge="1" parent="1" source="DIDQX_OVSp32dabbZ__B-9" target="DIDQX_OVSp32dabbZ__B-14">
          <mxGeometry relative="1" as="geometry">
            <mxPoint x="230" y="480" as="sourcePoint" />
            <mxPoint x="380" y="580" as="targetPoint" />
          </mxGeometry>
        </mxCell>
        <mxCell id="DIDQX_OVSp32dabbZ__B-66" style="edgeStyle=orthogonalEdgeStyle;rounded=0;orthogonalLoop=1;jettySize=auto;html=1;exitX=0.5;exitY=1;exitDx=0;exitDy=0;startArrow=ERone;startFill=0;endArrow=ERzeroToMany;endFill=0;startSize=18;endSize=14;entryX=0.5;entryY=0;entryDx=0;entryDy=0;" edge="1" parent="1" source="DIDQX_OVSp32dabbZ__B-9" target="DIDQX_OVSp32dabbZ__B-18">
          <mxGeometry relative="1" as="geometry">
            <mxPoint x="230" y="480" as="sourcePoint" />
            <mxPoint x="230" y="580" as="targetPoint" />
          </mxGeometry>
        </mxCell>
        <mxCell id="DIDQX_OVSp32dabbZ__B-67" style="edgeStyle=orthogonalEdgeStyle;rounded=0;orthogonalLoop=1;jettySize=auto;html=1;exitX=1;exitY=0.5;exitDx=0;exitDy=0;startArrow=ERone;startFill=0;endArrow=ERzeroToMany;endFill=0;startSize=18;endSize=14;entryX=0;entryY=0.5;entryDx=0;entryDy=0;" edge="1" parent="1" source="DIDQX_OVSp32dabbZ__B-3" target="DIDQX_OVSp32dabbZ__B-7">
          <mxGeometry relative="1" as="geometry">
            <mxPoint x="110" y="190" as="sourcePoint" />
            <mxPoint x="-40" y="290" as="targetPoint" />
          </mxGeometry>
        </mxCell>
        <mxCell id="DIDQX_OVSp32dabbZ__B-68" style="edgeStyle=orthogonalEdgeStyle;rounded=0;orthogonalLoop=1;jettySize=auto;html=1;exitX=0.5;exitY=1;exitDx=0;exitDy=0;startArrow=ERone;startFill=0;endArrow=ERzeroToMany;endFill=0;startSize=18;endSize=14;entryX=0.5;entryY=0;entryDx=0;entryDy=0;" edge="1" parent="1" source="DIDQX_OVSp32dabbZ__B-7" target="DIDQX_OVSp32dabbZ__B-8">
          <mxGeometry relative="1" as="geometry">
            <mxPoint x="145" y="210" as="sourcePoint" />
            <mxPoint x="-5" y="310" as="targetPoint" />
          </mxGeometry>
        </mxCell>
        <mxCell id="DIDQX_OVSp32dabbZ__B-72" style="edgeStyle=orthogonalEdgeStyle;rounded=0;orthogonalLoop=1;jettySize=auto;html=1;exitX=1;exitY=0.5;exitDx=0;exitDy=0;startArrow=ERone;startFill=0;endArrow=ERzeroToMany;endFill=0;startSize=18;endSize=14;entryX=0;entryY=0.5;entryDx=0;entryDy=0;dashed=1;" edge="1" parent="1" source="DIDQX_OVSp32dabbZ__B-9" target="DIDQX_OVSp32dabbZ__B-30">
          <mxGeometry relative="1" as="geometry">
            <mxPoint x="230" y="130" as="sourcePoint" />
            <mxPoint x="230" y="200" as="targetPoint" />
          </mxGeometry>
        </mxCell>
        <mxCell id="DIDQX_OVSp32dabbZ__B-73" style="edgeStyle=orthogonalEdgeStyle;rounded=0;orthogonalLoop=1;jettySize=auto;html=1;exitX=1;exitY=0.25;exitDx=0;exitDy=0;startArrow=ERone;startFill=0;endArrow=ERzeroToOne;endFill=0;startSize=18;endSize=14;entryX=0;entryY=0.5;entryDx=0;entryDy=0;" edge="1" parent="1" source="DIDQX_OVSp32dabbZ__B-30" target="DIDQX_OVSp32dabbZ__B-31">
          <mxGeometry relative="1" as="geometry">
            <mxPoint x="230" y="130" as="sourcePoint" />
            <mxPoint x="230" y="200" as="targetPoint" />
          </mxGeometry>
        </mxCell>
        <mxCell id="DIDQX_OVSp32dabbZ__B-117" style="edgeStyle=orthogonalEdgeStyle;rounded=0;orthogonalLoop=1;jettySize=auto;html=1;exitX=0.5;exitY=0;exitDx=0;exitDy=0;startArrow=ERzeroToOne;startFill=0;endArrow=ERone;endFill=0;startSize=18;endSize=14;entryX=0;entryY=0.75;entryDx=0;entryDy=0;" edge="1" parent="1" source="DIDQX_OVSp32dabbZ__B-114" target="DIDQX_OVSp32dabbZ__B-9">
          <mxGeometry relative="1" as="geometry">
            <mxPoint x="70" y="327.5000000000002" as="sourcePoint" />
            <mxPoint x="170" y="325.0000000000002" as="targetPoint" />
            <Array as="points">
              <mxPoint x="-90" y="413" />
              <mxPoint x="10" y="413" />
            </Array>
          </mxGeometry>
        </mxCell>
        <mxCell id="DIDQX_OVSp32dabbZ__B-120" style="edgeStyle=orthogonalEdgeStyle;rounded=0;orthogonalLoop=1;jettySize=auto;html=1;exitX=0.5;exitY=0;exitDx=0;exitDy=0;startArrow=ERzeroToOne;startFill=0;endArrow=ERone;endFill=0;startSize=18;endSize=14;entryX=0;entryY=0.75;entryDx=0;entryDy=0;" edge="1" parent="1" source="DIDQX_OVSp32dabbZ__B-118" target="DIDQX_OVSp32dabbZ__B-9">
          <mxGeometry relative="1" as="geometry">
            <mxPoint x="-110" y="550" as="sourcePoint" />
            <mxPoint x="174.99999999999977" y="470.0000000000002" as="targetPoint" />
            <Array as="points">
              <mxPoint x="-270" y="413" />
            </Array>
          </mxGeometry>
        </mxCell>
        <mxCell id="DIDQX_OVSp32dabbZ__B-122" value="" style="group" vertex="1" connectable="0" parent="1">
          <mxGeometry x="70" y="160" width="200" height="310" as="geometry" />
        </mxCell>
        <mxCell id="DIDQX_OVSp32dabbZ__B-8" value="userId&#xa;InstitutionId" style="swimlane;childLayout=stackLayout;horizontal=1;startSize=50;horizontalStack=0;rounded=1;fontSize=14;fontStyle=0;strokeWidth=2;resizeParent=0;resizeLast=1;shadow=0;dashed=0;align=center;" vertex="1" parent="DIDQX_OVSp32dabbZ__B-122">
          <mxGeometry y="30" width="200" height="280" as="geometry" />
        </mxCell>
        <mxCell id="DIDQX_OVSp32dabbZ__B-9" value="사진&#xa;이름&#xa;직종&#xa;담당업무&#xa;이메일&#xa;연락처&#xa;생년월일&#xa;입사일&#xa;퇴사일&#xa;활동정보(활동중/퇴사/보류)&#xa;요양보호사 정보&#xa;계약정보" style="align=left;strokeColor=none;fillColor=none;spacingLeft=4;fontSize=12;verticalAlign=top;resizable=0;rotatable=0;part=1;" vertex="1" parent="DIDQX_OVSp32dabbZ__B-8">
          <mxGeometry y="50" width="200" height="230" as="geometry" />
        </mxCell>
        <mxCell id="DIDQX_OVSp32dabbZ__B-107" value="직원&lt;span style=&quot;color: rgba(0 , 0 , 0 , 0) ; font-family: monospace ; font-size: 0px&quot;&gt;%3CmxGraphModel%3E%3Croot%3E%3CmxCell%20id%3D%220%22%2F%3E%3CmxCell%20id%3D%221%22%20parent%3D%220%22%2F%3E%3CmxCell%20id%3D%222%22%20value%3D%22%EC%84%9C%EC%8B%9D%22%20style%3D%22text%3Bhtml%3D1%3BstrokeColor%3Dnone%3BfillColor%3Dnone%3Balign%3Dcenter%3BverticalAlign%3Dmiddle%3BwhiteSpace%3Dwrap%3Brounded%3D0%3B%22%20vertex%3D%221%22%20parent%3D%221%22%3E%3CmxGeometry%20x%3D%22330%22%20y%3D%22-60%22%20width%3D%2260%22%20height%3D%2230%22%20as%3D%22geometry%22%2F%3E%3C%2FmxCell%3E%3C%2Froot%3E%3C%2FmxGraphModel%3E&lt;/span&gt;" style="text;html=1;strokeColor=none;fillColor=none;align=center;verticalAlign=middle;whiteSpace=wrap;rounded=0;" vertex="1" parent="DIDQX_OVSp32dabbZ__B-122">
          <mxGeometry width="60" height="30" as="geometry" />
        </mxCell>
        <mxCell id="DIDQX_OVSp32dabbZ__B-123" value="" style="group" vertex="1" connectable="0" parent="1">
          <mxGeometry x="-340" y="520" width="120" height="310" as="geometry" />
        </mxCell>
        <mxCell id="DIDQX_OVSp32dabbZ__B-118" value="userId&#xa;InstitutionId" style="swimlane;childLayout=stackLayout;horizontal=1;startSize=50;horizontalStack=0;rounded=1;fontSize=14;fontStyle=0;strokeWidth=2;resizeParent=0;resizeLast=1;shadow=0;dashed=0;align=center;" vertex="1" parent="DIDQX_OVSp32dabbZ__B-123">
          <mxGeometry x="20" y="30" width="100" height="280" as="geometry" />
        </mxCell>
        <mxCell id="DIDQX_OVSp32dabbZ__B-119" value="보험명&#xa;가입일&#xa;상실일&#xa;" style="align=left;strokeColor=none;fillColor=none;spacingLeft=4;fontSize=12;verticalAlign=top;resizable=0;rotatable=0;part=1;" vertex="1" parent="DIDQX_OVSp32dabbZ__B-118">
          <mxGeometry y="50" width="100" height="230" as="geometry" />
        </mxCell>
        <mxCell id="DIDQX_OVSp32dabbZ__B-121" value="직원보험" style="text;html=1;strokeColor=none;fillColor=none;align=center;verticalAlign=middle;whiteSpace=wrap;rounded=0;" vertex="1" parent="DIDQX_OVSp32dabbZ__B-123">
          <mxGeometry width="60" height="30" as="geometry" />
        </mxCell>
        <mxCell id="DIDQX_OVSp32dabbZ__B-124" value="" style="group" vertex="1" connectable="0" parent="1">
          <mxGeometry x="-160" y="520" width="120" height="310" as="geometry" />
        </mxCell>
        <mxCell id="DIDQX_OVSp32dabbZ__B-114" value="userId&#xa;InstitutionId" style="swimlane;childLayout=stackLayout;horizontal=1;startSize=50;horizontalStack=0;rounded=1;fontSize=14;fontStyle=0;strokeWidth=2;resizeParent=0;resizeLast=1;shadow=0;dashed=0;align=center;" vertex="1" parent="DIDQX_OVSp32dabbZ__B-124">
          <mxGeometry x="20" y="30" width="100" height="280" as="geometry" />
        </mxCell>
        <mxCell id="DIDQX_OVSp32dabbZ__B-115" value="직장명&#xa;근무기간&#xa;주요업무&#xa;기타" style="align=left;strokeColor=none;fillColor=none;spacingLeft=4;fontSize=12;verticalAlign=top;resizable=0;rotatable=0;part=1;" vertex="1" parent="DIDQX_OVSp32dabbZ__B-114">
          <mxGeometry y="50" width="100" height="230" as="geometry" />
        </mxCell>
        <mxCell id="DIDQX_OVSp32dabbZ__B-116" value="직원경력" style="text;html=1;strokeColor=none;fillColor=none;align=center;verticalAlign=middle;whiteSpace=wrap;rounded=0;" vertex="1" parent="DIDQX_OVSp32dabbZ__B-124">
          <mxGeometry width="60" height="30" as="geometry" />
        </mxCell>
        <mxCell id="DIDQX_OVSp32dabbZ__B-125" value="" style="group" vertex="1" connectable="0" parent="1">
          <mxGeometry x="-10" y="535" width="130" height="305" as="geometry" />
        </mxCell>
        <mxCell id="DIDQX_OVSp32dabbZ__B-18" value="userId&#xa;InstitutionId" style="swimlane;childLayout=stackLayout;horizontal=1;startSize=50;horizontalStack=0;rounded=1;fontSize=14;fontStyle=0;strokeWidth=2;resizeParent=0;resizeLast=1;shadow=0;dashed=0;align=center;" vertex="1" parent="DIDQX_OVSp32dabbZ__B-125">
          <mxGeometry x="30" y="54.743589743589745" width="100" height="250.25641025641025" as="geometry" />
        </mxCell>
        <mxCell id="DIDQX_OVSp32dabbZ__B-19" value="작성일&#xa;업무내용&#xa;특이사항&#xa;향후계획&#xa;구분&#xa;설명" style="align=left;strokeColor=none;fillColor=none;spacingLeft=4;fontSize=12;verticalAlign=top;resizable=0;rotatable=0;part=1;" vertex="1" parent="DIDQX_OVSp32dabbZ__B-18">
          <mxGeometry y="50" width="100" height="200.25641025641025" as="geometry" />
        </mxCell>
        <mxCell id="DIDQX_OVSp32dabbZ__B-110" value="근무일지&lt;span style=&quot;color: rgba(0 , 0 , 0 , 0) ; font-family: monospace ; font-size: 0px&quot;&gt;%3CmxGraphModel%3E%3Croot%3E%3CmxCell%20id%3D%220%22%2F%3E%3CmxCell%20id%3D%221%22%20parent%3D%220%22%2F%3E%3CmxCell%20id%3D%222%22%20value%3D%22%EC%84%9C%EC%8B%9D%22%20style%3D%22text%3Bhtml%3D1%3BstrokeColor%3Dnone%3BfillColor%3Dnone%3Balign%3Dcenter%3BverticalAlign%3Dmiddle%3BwhiteSpace%3Dwrap%3Brounded%3D0%3B%22%20vertex%3D%221%22%20parent%3D%221%22%3E%3CmxGeometry%20x%3D%22330%22%20y%3D%22-60%22%20width%3D%2260%22%20height%3D%2230%22%20as%3D%22geometry%22%2F%3E%3C%2FmxCell%3E%3C%2Froot%3E%3C%2FmxGraphModel%3E&lt;/span&gt;" style="text;html=1;strokeColor=none;fillColor=none;align=center;verticalAlign=middle;whiteSpace=wrap;rounded=0;" vertex="1" parent="DIDQX_OVSp32dabbZ__B-125">
          <mxGeometry width="60" height="46.92307692307692" as="geometry" />
        </mxCell>
        <mxCell id="DIDQX_OVSp32dabbZ__B-126" value="" style="group" vertex="1" connectable="0" parent="1">
          <mxGeometry x="140" y="535" width="130" height="255" as="geometry" />
        </mxCell>
        <mxCell id="DIDQX_OVSp32dabbZ__B-14" value="userId&#xa;InstitutionId&#xa;자격증번호" style="swimlane;childLayout=stackLayout;horizontal=1;startSize=80;horizontalStack=0;rounded=1;fontSize=14;fontStyle=0;strokeWidth=2;resizeParent=0;resizeLast=1;shadow=0;dashed=0;align=center;" vertex="1" parent="DIDQX_OVSp32dabbZ__B-126">
          <mxGeometry x="30" y="35" width="100" height="220" as="geometry" />
        </mxCell>
        <mxCell id="DIDQX_OVSp32dabbZ__B-15" value="자격증명&#xa;발급일&#xa;발급기관" style="align=left;strokeColor=none;fillColor=none;spacingLeft=4;fontSize=12;verticalAlign=top;resizable=0;rotatable=0;part=1;" vertex="1" parent="DIDQX_OVSp32dabbZ__B-14">
          <mxGeometry y="80" width="100" height="140" as="geometry" />
        </mxCell>
        <mxCell id="DIDQX_OVSp32dabbZ__B-111" value="자격증" style="text;html=1;strokeColor=none;fillColor=none;align=center;verticalAlign=middle;whiteSpace=wrap;rounded=0;" vertex="1" parent="DIDQX_OVSp32dabbZ__B-126">
          <mxGeometry width="60" height="30" as="geometry" />
        </mxCell>
        <mxCell id="DIDQX_OVSp32dabbZ__B-127" value="" style="group" vertex="1" connectable="0" parent="1">
          <mxGeometry x="290" y="540" width="130" height="190" as="geometry" />
        </mxCell>
        <mxCell id="DIDQX_OVSp32dabbZ__B-25" value="userId&#xa;InstitutionId" style="swimlane;childLayout=stackLayout;horizontal=1;startSize=50;horizontalStack=0;rounded=1;fontSize=14;fontStyle=0;strokeWidth=2;resizeParent=0;resizeLast=1;shadow=0;dashed=0;align=center;" vertex="1" parent="DIDQX_OVSp32dabbZ__B-127">
          <mxGeometry x="30" y="30" width="100" height="160" as="geometry" />
        </mxCell>
        <mxCell id="DIDQX_OVSp32dabbZ__B-26" value="진행일자&#xa;업무구분&#xa;진행시간&#xa;특이사항&#xa;변경사유&#xa;수가" style="align=left;strokeColor=none;fillColor=none;spacingLeft=4;fontSize=12;verticalAlign=top;resizable=0;rotatable=0;part=1;" vertex="1" parent="DIDQX_OVSp32dabbZ__B-25">
          <mxGeometry y="50" width="100" height="110" as="geometry" />
        </mxCell>
        <mxCell id="DIDQX_OVSp32dabbZ__B-112" value="직원업무일정" style="text;html=1;strokeColor=none;fillColor=none;align=center;verticalAlign=middle;whiteSpace=wrap;rounded=0;" vertex="1" parent="DIDQX_OVSp32dabbZ__B-127">
          <mxGeometry width="70" height="30" as="geometry" />
        </mxCell>
        <mxCell id="DIDQX_OVSp32dabbZ__B-128" value="" style="group" vertex="1" connectable="0" parent="1">
          <mxGeometry x="440" y="540" width="130" height="190" as="geometry" />
        </mxCell>
        <mxCell id="DIDQX_OVSp32dabbZ__B-27" value="userId&#xa;InstitutionId" style="swimlane;childLayout=stackLayout;horizontal=1;startSize=50;horizontalStack=0;rounded=1;fontSize=14;fontStyle=0;strokeWidth=2;resizeParent=0;resizeLast=1;shadow=0;dashed=0;align=center;" vertex="1" parent="DIDQX_OVSp32dabbZ__B-128">
          <mxGeometry x="30" y="30" width="100" height="160" as="geometry" />
        </mxCell>
        <mxCell id="DIDQX_OVSp32dabbZ__B-28" value="급여년월&#xa;실수령액&#xa;특이사항" style="align=left;strokeColor=none;fillColor=none;spacingLeft=4;fontSize=12;verticalAlign=top;resizable=0;rotatable=0;part=1;" vertex="1" parent="DIDQX_OVSp32dabbZ__B-27">
          <mxGeometry y="50" width="100" height="110" as="geometry" />
        </mxCell>
        <mxCell id="DIDQX_OVSp32dabbZ__B-113" value="급여대장" style="text;html=1;strokeColor=none;fillColor=none;align=center;verticalAlign=middle;whiteSpace=wrap;rounded=0;" vertex="1" parent="DIDQX_OVSp32dabbZ__B-128">
          <mxGeometry width="70" height="30" as="geometry" />
        </mxCell>
        <mxCell id="DIDQX_OVSp32dabbZ__B-129" value="" style="group" vertex="1" connectable="0" parent="1">
          <mxGeometry x="340" y="160" width="120" height="330" as="geometry" />
        </mxCell>
        <mxCell id="DIDQX_OVSp32dabbZ__B-29" value="recipterId" style="swimlane;childLayout=stackLayout;horizontal=1;startSize=50;horizontalStack=0;rounded=1;fontSize=14;fontStyle=0;strokeWidth=2;resizeParent=0;resizeLast=1;shadow=0;dashed=0;align=center;" vertex="1" parent="DIDQX_OVSp32dabbZ__B-129">
          <mxGeometry x="20" y="30" width="100" height="300" as="geometry" />
        </mxCell>
        <mxCell id="DIDQX_OVSp32dabbZ__B-30" value="userId(fk)&#xa;institutionId(fk)&#xa;사진&#xa;이름&#xa;성별&#xa;생년월일&#xa;주소&#xa;연락처&#xa;인정등급&#xa;인정기간 시작일&#xa;인정기간 종료일&#xa;장기요양인정번호&#xa;본인부담율&#xa;급여기간&#xa;급여한도액&#xa;주요질환정보&#xa;담당직원&#xa;" style="align=left;strokeColor=none;fillColor=none;spacingLeft=4;fontSize=12;verticalAlign=top;resizable=0;rotatable=0;part=1;" vertex="1" parent="DIDQX_OVSp32dabbZ__B-29">
          <mxGeometry y="50" width="100" height="250" as="geometry" />
        </mxCell>
        <mxCell id="DIDQX_OVSp32dabbZ__B-108" value="수급자&lt;span style=&quot;color: rgba(0 , 0 , 0 , 0) ; font-family: monospace ; font-size: 0px&quot;&gt;%3CmxGraphModel%3E%3Croot%3E%3CmxCell%20id%3D%220%22%2F%3E%3CmxCell%20id%3D%221%22%20parent%3D%220%22%2F%3E%3CmxCell%20id%3D%222%22%20value%3D%22%EC%84%9C%EC%8B%9D%22%20style%3D%22text%3Bhtml%3D1%3BstrokeColor%3Dnone%3BfillColor%3Dnone%3Balign%3Dcenter%3BverticalAlign%3Dmiddle%3BwhiteSpace%3Dwrap%3Brounded%3D0%3B%22%20vertex%3D%221%22%20parent%3D%221%22%3E%3CmxGeometry%20x%3D%22330%22%20y%3D%22-60%22%20width%3D%2260%22%20height%3D%2230%22%20as%3D%22geometry%22%2F%3E%3C%2FmxCell%3E%3C%2Froot%3E%3C%2FmxGraphModel%3E&lt;/span&gt;" style="text;html=1;strokeColor=none;fillColor=none;align=center;verticalAlign=middle;whiteSpace=wrap;rounded=0;" vertex="1" parent="DIDQX_OVSp32dabbZ__B-129">
          <mxGeometry width="60" height="30" as="geometry" />
        </mxCell>
        <mxCell id="DIDQX_OVSp32dabbZ__B-130" value="" style="group" vertex="1" connectable="0" parent="1">
          <mxGeometry x="540" y="190" width="120" height="190" as="geometry" />
        </mxCell>
        <mxCell id="DIDQX_OVSp32dabbZ__B-31" value="recipterId(fk)" style="swimlane;childLayout=stackLayout;horizontal=1;startSize=50;horizontalStack=0;rounded=1;fontSize=14;fontStyle=0;strokeWidth=2;resizeParent=0;resizeLast=1;shadow=0;dashed=0;align=center;" vertex="1" parent="DIDQX_OVSp32dabbZ__B-130">
          <mxGeometry x="20" y="30" width="100" height="160" as="geometry" />
        </mxCell>
        <mxCell id="DIDQX_OVSp32dabbZ__B-32" value="이름&#xa;수급자와의 관계&#xa;연락처&#xa;email&#xa;주소" style="align=left;strokeColor=none;fillColor=none;spacingLeft=4;fontSize=12;verticalAlign=top;resizable=0;rotatable=0;part=1;" vertex="1" parent="DIDQX_OVSp32dabbZ__B-31">
          <mxGeometry y="50" width="100" height="110" as="geometry" />
        </mxCell>
        <mxCell id="DIDQX_OVSp32dabbZ__B-109" value="보호자" style="text;html=1;strokeColor=none;fillColor=none;align=center;verticalAlign=middle;whiteSpace=wrap;rounded=0;" vertex="1" parent="DIDQX_OVSp32dabbZ__B-130">
          <mxGeometry width="60" height="30" as="geometry" />
        </mxCell>
        <mxCell id="DIDQX_OVSp32dabbZ__B-131" value="" style="group" vertex="1" connectable="0" parent="1">
          <mxGeometry x="-240" y="-240" width="170" height="260" as="geometry" />
        </mxCell>
        <mxCell id="DIDQX_OVSp32dabbZ__B-2" value="institutionId" style="swimlane;childLayout=stackLayout;horizontal=1;startSize=30;horizontalStack=0;rounded=1;fontSize=14;fontStyle=0;strokeWidth=2;resizeParent=0;resizeLast=1;shadow=0;dashed=0;align=center;" vertex="1" parent="DIDQX_OVSp32dabbZ__B-131">
          <mxGeometry x="20" y="30" width="150" height="230" as="geometry">
            <mxRectangle x="-10" y="-20" width="100" height="30" as="alternateBounds" />
          </mxGeometry>
        </mxCell>
        <mxCell id="DIDQX_OVSp32dabbZ__B-3" value="기관명&#xa;사업자번호(institutionId)&#xa;이메일&#xa;등록된 기관인지여부&#xa;" style="align=left;strokeColor=none;fillColor=none;spacingLeft=4;fontSize=12;verticalAlign=top;resizable=0;rotatable=0;part=1;" vertex="1" parent="DIDQX_OVSp32dabbZ__B-2">
          <mxGeometry y="30" width="150" height="200" as="geometry" />
        </mxCell>
        <mxCell id="DIDQX_OVSp32dabbZ__B-106" value="단체/기관" style="text;html=1;strokeColor=none;fillColor=none;align=center;verticalAlign=middle;whiteSpace=wrap;rounded=0;" vertex="1" parent="DIDQX_OVSp32dabbZ__B-131">
          <mxGeometry width="60" height="30" as="geometry" />
        </mxCell>
        <mxCell id="DIDQX_OVSp32dabbZ__B-132" value="" style="group" vertex="1" connectable="0" parent="1">
          <mxGeometry x="70" y="-290" width="170" height="340" as="geometry" />
        </mxCell>
        <mxCell id="DIDQX_OVSp32dabbZ__B-6" value="userId&#xa;InstitutionId(FK)" style="swimlane;childLayout=stackLayout;horizontal=1;startSize=50;horizontalStack=0;rounded=1;fontSize=14;fontStyle=0;strokeWidth=2;resizeParent=0;resizeLast=1;shadow=0;dashed=0;align=center;" vertex="1" parent="DIDQX_OVSp32dabbZ__B-132">
          <mxGeometry x="30" y="30" width="140" height="310" as="geometry" />
        </mxCell>
        <mxCell id="DIDQX_OVSp32dabbZ__B-7" value="(userId가 username대체)&#xa;&#xa;비밀번호&#xa;권한&#xa;" style="align=left;strokeColor=none;fillColor=none;spacingLeft=4;fontSize=12;verticalAlign=top;resizable=0;rotatable=0;part=1;" vertex="1" parent="DIDQX_OVSp32dabbZ__B-6">
          <mxGeometry y="50" width="140" height="260" as="geometry" />
        </mxCell>
        <mxCell id="DIDQX_OVSp32dabbZ__B-105" value="user" style="text;html=1;strokeColor=none;fillColor=none;align=center;verticalAlign=middle;whiteSpace=wrap;rounded=0;" vertex="1" parent="DIDQX_OVSp32dabbZ__B-132">
          <mxGeometry width="100" height="30" as="geometry" />
        </mxCell>
        <mxCell id="DIDQX_OVSp32dabbZ__B-133" value="" style="group" vertex="1" connectable="0" parent="1">
          <mxGeometry x="330" y="-170" width="150" height="220" as="geometry" />
        </mxCell>
        <mxCell id="DIDQX_OVSp32dabbZ__B-74" value="id" style="swimlane;childLayout=stackLayout;horizontal=1;startSize=30;horizontalStack=0;rounded=1;fontSize=14;fontStyle=0;strokeWidth=2;resizeParent=0;resizeLast=1;shadow=0;dashed=0;align=center;" vertex="1" parent="DIDQX_OVSp32dabbZ__B-133">
          <mxGeometry y="51.76470588235294" width="150" height="168.23529411764707" as="geometry" />
        </mxCell>
        <mxCell id="DIDQX_OVSp32dabbZ__B-75" value="서식파일&#xa;서식명&#xa;등록일&#xa;구분(어떤형식의 서류인지)&#xa;userId(fk)&#xa;institutionId(fk)&#xa;recipterId(fk)" style="align=left;strokeColor=none;fillColor=none;spacingLeft=4;fontSize=12;verticalAlign=top;resizable=0;rotatable=0;part=1;" vertex="1" parent="DIDQX_OVSp32dabbZ__B-74">
          <mxGeometry y="30" width="150" height="138.23529411764707" as="geometry" />
        </mxCell>
        <mxCell id="DIDQX_OVSp32dabbZ__B-104" value="서식" style="text;html=1;strokeColor=none;fillColor=none;align=center;verticalAlign=middle;whiteSpace=wrap;rounded=0;" vertex="1" parent="DIDQX_OVSp32dabbZ__B-133">
          <mxGeometry y="12.941176470588236" width="50" height="38.82352941176471" as="geometry" />
        </mxCell>
        <mxCell id="DIDQX_OVSp32dabbZ__B-136" style="edgeStyle=orthogonalEdgeStyle;rounded=0;orthogonalLoop=1;jettySize=auto;html=1;exitX=0.75;exitY=0;exitDx=0;exitDy=0;startArrow=ERone;startFill=0;endArrow=ERzeroToMany;endFill=0;startSize=18;endSize=14;entryX=0.5;entryY=1;entryDx=0;entryDy=0;dashed=1;" edge="1" parent="1" source="DIDQX_OVSp32dabbZ__B-8" target="DIDQX_OVSp32dabbZ__B-75">
          <mxGeometry relative="1" as="geometry">
            <mxPoint x="240" y="130" as="sourcePoint" />
            <mxPoint x="330" y="140" as="targetPoint" />
          </mxGeometry>
        </mxCell>
        <mxCell id="DIDQX_OVSp32dabbZ__B-137" style="edgeStyle=orthogonalEdgeStyle;rounded=0;orthogonalLoop=1;jettySize=auto;html=1;startArrow=ERone;startFill=0;endArrow=ERzeroToMany;endFill=0;startSize=18;endSize=14;entryX=0.5;entryY=1;entryDx=0;entryDy=0;dashed=1;" edge="1" parent="1">
          <mxGeometry relative="1" as="geometry">
            <mxPoint x="405" y="190" as="sourcePoint" />
            <mxPoint x="405" y="50" as="targetPoint" />
          </mxGeometry>
        </mxCell>
        <mxCell id="DIDQX_OVSp32dabbZ__B-138" value="" style="group" vertex="1" connectable="0" parent="1">
          <mxGeometry x="-520" y="520" width="120" height="310" as="geometry" />
        </mxCell>
        <mxCell id="DIDQX_OVSp32dabbZ__B-139" value="userId&#xa;InstitutionId" style="swimlane;childLayout=stackLayout;horizontal=1;startSize=50;horizontalStack=0;rounded=1;fontSize=14;fontStyle=0;strokeWidth=2;resizeParent=0;resizeLast=1;shadow=0;dashed=0;align=center;" vertex="1" parent="DIDQX_OVSp32dabbZ__B-138">
          <mxGeometry x="20" y="30" width="100" height="280" as="geometry" />
        </mxCell>
        <mxCell id="DIDQX_OVSp32dabbZ__B-140" value="연도&#xa;직원명&#xa;건강검진진행여부&#xa;(진행/미진행)&#xa;진행날짜&#xa;비고(설명)" style="align=left;strokeColor=none;fillColor=none;spacingLeft=4;fontSize=12;verticalAlign=top;resizable=0;rotatable=0;part=1;" vertex="1" parent="DIDQX_OVSp32dabbZ__B-139">
          <mxGeometry y="50" width="100" height="230" as="geometry" />
        </mxCell>
        <mxCell id="DIDQX_OVSp32dabbZ__B-141" value="건강검진" style="text;html=1;strokeColor=none;fillColor=none;align=center;verticalAlign=middle;whiteSpace=wrap;rounded=0;" vertex="1" parent="DIDQX_OVSp32dabbZ__B-138">
          <mxGeometry width="60" height="30" as="geometry" />
        </mxCell>
        <mxCell id="DIDQX_OVSp32dabbZ__B-142" style="edgeStyle=orthogonalEdgeStyle;rounded=0;orthogonalLoop=1;jettySize=auto;html=1;exitX=0.5;exitY=0;exitDx=0;exitDy=0;startArrow=ERzeroToOne;startFill=0;endArrow=ERone;endFill=0;startSize=18;endSize=14;entryX=0;entryY=0.75;entryDx=0;entryDy=0;" edge="1" parent="1" source="DIDQX_OVSp32dabbZ__B-139" target="DIDQX_OVSp32dabbZ__B-9">
          <mxGeometry relative="1" as="geometry">
            <mxPoint x="-259.9999999999998" y="560" as="sourcePoint" />
            <mxPoint x="80" y="422.5" as="targetPoint" />
            <Array as="points">
              <mxPoint x="-450" y="413" />
            </Array>
          </mxGeometry>
        </mxCell>
      </root>
    </mxGraphModel>
  </diagram>
</mxfile>
